# xmcd
#
# Track frame offsets: 
#        150
#        23348
#        38163
#        55219
#        66635
#        79405
#        93364
#        102229
#        116029
#        139376
#        147882
#        164256
#
# Disc length: 2358 seconds
#
# Revision: 0
# Processed by: cddbd v1.5.2PL0 Copyright (c) Steve Scherf et al.
# Submitted via: ExactAudioCopy v1.0b1
#
DISCID=a709340c
DTITLE=Willie Nelson - Tales out of Luck
DYEAR=2001
DGENRE=Country
TTITLE0=Me and the Drummer
TTITLE1=Home Motel
TTITLE2=Let My Mind Wander
TTITLE3=I'd Rather You Didn't Love Me
TTITLE4=Something to Think About
TTITLE5=No Tomorrow in Sight
TTITLE6=I'm So Ashamed
TTITLE7=A Moment Isn't Very Long
TTITLE8=Rainy Day Blues
TTITLE9=You Wouldn't Cross the Street to Say Goodbye
TTITLE10=I Guess I've Come to Live Here in Your Eyes
TTITLE11=Forgiving You Was Easy
EXTD=
EXTT0=
EXTT1=
EXTT2=
EXTT3=
EXTT4=
EXTT5=
EXTT6=
EXTT7=
EXTT8=
EXTT9=
EXTT10=
EXTT11=
PLAYORDER=
